<svg xmlns="http://www.w3.org/2000/svg" width="50" height="50" viewBox="0 0 50 50">
  <g id="Completed_Survey" transform="translate(-1693 -1509)">
    <rect id="Rectangle_1093" data-name="Rectangle 1093" width="50" height="50" transform="translate(1693 1509)" fill="none"/>
    <path id="Path_109" data-name="Path 109" d="M-694.4,429.843a8.768,8.768,0,0,0-3.307.645,5.707,5.707,0,0,0-2.733-.693h-12.6a5.733,5.733,0,0,0-5.733,5.732v21.283a5.733,5.733,0,0,0,5.733,5.733h9.049a5.891,5.891,0,0,0,4.165-1.726l3.395-3.395a5.891,5.891,0,0,0,1.725-4.165v-5.826c.1,0,.2.008.307.008a8.8,8.8,0,0,0,8.8-8.8A8.8,8.8,0,0,0-694.4,429.843Zm-20.863,8.395a.985.985,0,0,1,.985-.985h10.554a.565.565,0,0,1,.56.62q-.033.38-.034.769v.006a.568.568,0,0,1-.564.575h-10.517a.985.985,0,0,1-.985-.985Zm0,4.852a.985.985,0,0,1,.985-.985h11.426a.557.557,0,0,1,.5.313,8.688,8.688,0,0,0,.437.8.562.562,0,0,1-.484.852h-11.884a.985.985,0,0,1-.985-.985Zm9.239,10.689h-8.254a.985.985,0,0,1-.985-.985.985.985,0,0,1,.985-.985h8.254a.985.985,0,0,1,.985.985A.985.985,0,0,1-706.022,453.778Zm7.806-5.837a.985.985,0,0,1-.985.985h-15.076a.985.985,0,0,1-.985-.985h0a.985.985,0,0,1,.985-.985H-699.2a.985.985,0,0,1,.985.985Zm3.818-1.623a7.677,7.677,0,0,1-7.677-7.677,7.677,7.677,0,0,1,7.677-7.677,7.677,7.677,0,0,1,7.677,7.677A7.677,7.677,0,0,1-694.4,446.318Zm0-14.331a6.654,6.654,0,0,0-6.654,6.654,6.654,6.654,0,0,0,6.654,6.654,6.654,6.654,0,0,0,6.654-6.654A6.654,6.654,0,0,0-694.4,431.987Zm3.548,5.065-4.11,4.11a.658.658,0,0,1-.465.193.659.659,0,0,1-.466-.193l-2.055-2.055a.658.658,0,0,1,0-.931.659.659,0,0,1,.931,0l1.589,1.589,3.644-3.644a.659.659,0,0,1,.931,0A.658.658,0,0,1-690.849,437.052Z" transform="translate(2420.105 1087.851)" fill="#9d9d9d"/>
  </g>
</svg>
