<svg id="Dash-Profile" xmlns="http://www.w3.org/2000/svg" width="90.32" height="79.273" viewBox="0 0 90.32 79.273">
  <rect id="Rectangle_1106" data-name="Rectangle 1106" width="90.32" height="79.273" fill="none"/>
  <path id="Path_116" data-name="Path 116" d="M157.769,95.909H110.185a5.109,5.109,0,0,1-5.1-5.092,28.889,28.889,0,0,1,57.778,0A5.109,5.109,0,0,1,157.769,95.909Zm-23.791-32.13a27.062,27.062,0,0,0-27.03,27.03,3.251,3.251,0,0,0,3.237,3.242h47.584a3.251,3.251,0,0,0,3.241-3.234A27.064,27.064,0,0,0,133.978,63.778Zm0-3.677a18,18,0,1,1,18-18,18,18,0,0,1-18,18Zm0-34.142A16.143,16.143,0,1,0,150.121,42.1,16.143,16.143,0,0,0,133.978,25.96Z" transform="translate(-88.819 -20.369)" fill="#f90"/>
</svg>
