<svg id="Dash-New" xmlns="http://www.w3.org/2000/svg" width="90.32" height="79.273" viewBox="0 0 90.32 79.273">
  <path id="Path_114" data-name="Path 114" d="M111.505,23.54a.929.929,0,1,1,1.858,0V37.784a.929.929,0,1,1-1.858,0Zm61.158,35.42H163.1V49.4a.929.929,0,1,0-1.858,0v9.559h-9.559a.929.929,0,0,0-.929.929h0a.929.929,0,0,0,.929.929h9.559v9.559a.929.929,0,1,0,1.858,0V60.818h9.559a.929.929,0,0,0,.929-.929h0a.929.929,0,0,0-.929-.929Zm-8.59,19.561a5.6,5.6,0,0,1-5.351,4.009H112.694a5.523,5.523,0,0,1-5.524-5.524V30.353a.929.929,0,1,1,1.858,0V77.006a3.666,3.666,0,0,0,3.666,3.666h46.034a3.716,3.716,0,0,0,3.326-2.058A18.688,18.688,0,0,1,147.5,71.537H133.534c-.748,0-1.352-.416-1.352-.929s.6-.929,1.352-.929H146.2a18.782,18.782,0,0,1-1.342-2.632H133.112a.929.929,0,0,1,0-1.858H144.2a18.8,18.8,0,0,1,.276-11.457H133.112a.929.929,0,0,1-.929-.957.955.955,0,0,1,.972-.9h12.091a18.794,18.794,0,0,1,1.522-2.632H133.112a.929.929,0,0,1,0-1.858h13.846a.929.929,0,0,1,.83.512,18.686,18.686,0,0,1,14.382-6.734h.274V18.517a3.685,3.685,0,0,0-3.716-3.648H157.18V17.9a.928.928,0,0,1-.852,1h-9.7a.97.97,0,0,1-.906-1V14.87H125.592V17.9a1.034,1.034,0,0,1-.975,1h-9.528a1.008,1.008,0,0,1-.951-1V14.87H112.7a3.669,3.669,0,0,0-3.669,3.669V23.85a.929.929,0,1,1-1.858,0V18.536a5.523,5.523,0,0,1,5.524-5.524h1.443V10.5a5.729,5.729,0,0,1,11.457,0v2.513h20.128V10.585a5.729,5.729,0,0,1,11.457,0v2.426h1.559a5.546,5.546,0,0,1,5.563,5.527V41.284a18.734,18.734,0,0,1-.229,37.238ZM123.737,10.5a3.871,3.871,0,1,0-7.741,0v6.538h7.741Zm31.585.087a3.871,3.871,0,1,0-7.741,0v6.452h7.741Zm23.717,49.3a16.876,16.876,0,1,0-16.876,16.876A16.876,16.876,0,0,0,179.039,59.889ZM116.3,63.331a.929.929,0,0,1,.929-.929H127.3a.929.929,0,0,1,.929.929V73.4a.929.929,0,0,1-.929.929H117.234a.929.929,0,0,1-.929-.929Zm1.858,9.135h8.206V64.26h-8.206Zm14.949-36.23h21a.929.929,0,1,0,0-1.858h-21a.929.929,0,0,0,0,1.858Zm0-4.49h13.846a.929.929,0,1,0,0-1.858H133.112a.929.929,0,0,0,0,1.858ZM112.434,21.372a.929.929,0,0,0,.929-.929v-.31a.929.929,0,1,0-1.858,0v.31A.929.929,0,0,0,112.434,21.372ZM116.3,37.939V27.875a.929.929,0,0,1,.929-.929H127.3a.929.929,0,0,1,.929.929V37.939a.929.929,0,0,1-.929.929H117.234A.929.929,0,0,1,116.3,37.939Zm1.858-.929h8.206V28.8h-8.206ZM116.3,45.6a.929.929,0,0,1,.929-.929H127.3a.929.929,0,0,1,.929.929V55.667a.929.929,0,0,1-.929.929H117.234a.929.929,0,0,1-.929-.929Zm1.858,9.135h8.206V46.532h-8.206Z" transform="translate(-90.577 -4.031)" fill="#f90"/>
  <rect id="Rectangle_1101" data-name="Rectangle 1101" width="90.32" height="79.273" fill="none"/>
</svg>
