<svg id="Dash-Completed" xmlns="http://www.w3.org/2000/svg" width="90.316" height="79.27" viewBox="0 0 90.316 79.27">
  <path id="Path_113" data-name="Path 113" d="M111.641,15.673v-.31a.929.929,0,1,1,1.858,0v.31a.929.929,0,1,1-1.858,0Zm0,17.34a.929.929,0,1,0,1.858,0V18.769a.929.929,0,1,0-1.858,0Zm4.8,17.816a.987.987,0,0,0,1,.918h9.992a.918.918,0,0,0,.929-.91V49.183a.929.929,0,1,0-1.858,0v.706H118.3V41.838h7.393a.929.929,0,1,0,0-1.858h-8.251a.937.937,0,0,0-1,.856Zm12.575-8.051a.929.929,0,0,0-1.31-.115h0l-3.716,3.109-1.254-1.262a.929.929,0,1,0-1.324,1.3l.009.011,1.869,1.869a.929.929,0,0,0,1.254.054l4.361-3.655a.929.929,0,0,0,.11-1.31ZM116.441,68.324a.987.987,0,0,0,1,.918h9.992a.918.918,0,0,0,.929-.91V66.678a.929.929,0,0,0-1.858,0v.706H118.3V59.333h7.393a.929.929,0,1,0,0-1.858h-8.251a.937.937,0,0,0-1,.856Zm11.265-8.161h0l-3.716,3.11-1.254-1.268a.929.929,0,1,0-1.324,1.3l.009.011,1.869,1.869a.929.929,0,0,0,1.254.054l4.361-3.655a.929.929,0,1,0-1.194-1.424ZM125.693,22.33h-8.249a1.051,1.051,0,0,0-1,.992v9.992a1,1,0,0,0,1,.929h9.992a.929.929,0,0,0,.929-.929V31.669a.929.929,0,0,0-1.858,0v.725H118.3V24.188h7.393a.929.929,0,0,0,0-1.858Zm3.321,2.942a.929.929,0,0,0-1.308-.115l-3.716,3.109L122.736,27a.929.929,0,1,0-1.314,1.313l1.869,1.87a.929.929,0,0,0,1.254.056l4.361-3.657a.929.929,0,0,0,.115-1.308Zm4.234,1.7h13.846a.929.929,0,1,0,0-1.858H133.247a.929.929,0,1,0,0,1.858Zm0,4.49h21a.929.929,0,0,0,0-1.858h-21a.929.929,0,1,0,0,1.858Zm31.037,41.988a5.6,5.6,0,0,1-5.428,4.3H112.827a5.523,5.523,0,0,1-5.524-5.524V25.581a.929.929,0,0,1,1.858,0V72.233a3.666,3.666,0,0,0,3.666,3.666h46.035a3.716,3.716,0,0,0,3.451-2.339h-.035a18.693,18.693,0,0,1-14.436-6.8H133.67c-.746,0-1.352-.416-1.352-.929s.605-.929,1.352-.929h12.818a18.586,18.586,0,0,1-1.393-2.632H133.247a.929.929,0,1,1,0-1.858h11.147a18.811,18.811,0,0,1,.094-11.457H133.247a.929.929,0,0,1,0-1.858h11.971a18.614,18.614,0,0,1,1.462-2.632H133.247a.929.929,0,0,1,0-1.858h13.846a.929.929,0,0,1,.715.334,18.687,18.687,0,0,1,14.47-6.839h.3V13.747a3.685,3.685,0,0,0-3.716-3.648h-1.548v3.028a.928.928,0,0,1-.852,1h-9.7a.97.97,0,0,1-.906-1V10.1H125.73v3.028a1.034,1.034,0,0,1-.982,1h-9.525a1.008,1.008,0,0,1-.951-1V10.1h-1.446a3.669,3.669,0,0,0-3.669,3.669v5.31a.929.929,0,0,1-1.858,0V13.765a5.523,5.523,0,0,1,5.527-5.524h1.443V5.728a5.728,5.728,0,0,1,11.457,0V8.241h20.127V5.815a5.728,5.728,0,0,1,11.457,0V8.241h1.559a5.546,5.546,0,0,1,5.563,5.527v22.46a18.734,18.734,0,0,1-.155,37.22ZM123.872,5.728a3.871,3.871,0,0,0-7.741,0v6.538h7.741Zm31.584.087a3.871,3.871,0,1,0-7.741,0v6.451h7.741Zm23.688,49.019a16.876,16.876,0,1,0-16.876,16.876,16.876,16.876,0,0,0,16.876-16.876Zm-6.739-7.08L158.243,61.915l-6.091-6.1a.929.929,0,1,0-1.313,1.313l6.1,6.1.656.656a.929.929,0,0,0,1.314,0l.656-.656,14.163-14.163a.929.929,0,1,0-1.314-1.313Z" transform="translate(-90.687)" fill="#f90"/>
  <rect id="Rectangle_1100" data-name="Rectangle 1100" width="90.316" height="79.27" fill="none"/>
</svg>
