<svg id="Dash-Processing" xmlns="http://www.w3.org/2000/svg" width="90.32" height="79.27" viewBox="0 0 90.32 79.27">
  <path id="Path_115" data-name="Path 115" d="M112.264,16.6a.929.929,0,0,0,.929-.929v-.31a.929.929,0,0,0-1.858,0v.31a.929.929,0,0,0,.929.929Zm-.929,16.411a.929.929,0,0,0,1.858,0V18.769a.929.929,0,0,0-1.858,0Zm4.8,17.816a.986.986,0,0,0,1,.918h9.989a.918.918,0,0,0,.929-.909V49.184a.929.929,0,0,0-1.858,0v.7h-8.206V41.838h7.391a.929.929,0,1,0,0-1.858h-8.246a.937.937,0,0,0-1,.858ZM127.4,42.669l-3.708,3.109-1.268-1.268a.929.929,0,1,0-1.324,1.3l.011.011,1.869,1.869a.929.929,0,0,0,1.254.056l4.361-3.657a.929.929,0,0,0-1.194-1.424Zm5.541,1.8h13.85a.929.929,0,0,0,0-1.858h-13.85a.929.929,0,0,0,0,1.858Zm0,4.49h21a.929.929,0,0,0,0-1.858h-21a.929.929,0,0,0,0,1.858Zm-16.8,19.663a.929.929,0,0,0,.929.929h10.064a.929.929,0,0,0,.929-.929V58.559a.929.929,0,0,0-.929-.929H117.064a.929.929,0,0,0-.929.929Zm1.858-9.135H126.2v8.206h-8.206Zm14.947,2.787h13.85a.929.929,0,1,0,0-1.858h-13.85a.929.929,0,0,0,0,1.858ZM125.384,22.33h-8.246a1.053,1.053,0,0,0-1,.994v9.991a1,1,0,0,0,1,.929h9.989a.929.929,0,0,0,.929-.929V31.671a.929.929,0,1,0-1.858,0v.723h-8.206V24.188h7.391a.929.929,0,1,0,0-1.858Zm3.323,2.942a.929.929,0,0,0-1.308-.116l-3.708,3.109L122.422,27a.929.929,0,1,0-1.313,1.314l1.869,1.869a.929.929,0,0,0,1.254.056l4.361-3.655a.929.929,0,0,0,.113-1.31Zm4.233,1.7h13.85a.929.929,0,0,0,0-1.858h-13.85a.929.929,0,0,0,0,1.858Zm0,4.49h21a.929.929,0,0,0,0-1.858h-21a.929.929,0,1,0,0,1.858Zm38,6.688-6.812,6.8V13.768a5.546,5.546,0,0,0-5.563-5.527h-1.559V5.815a5.728,5.728,0,1,0-11.457,0V8.241H125.424V5.728a5.728,5.728,0,0,0-11.457,0V8.241h-1.443A5.524,5.524,0,0,0,107,13.765h0v5.314a.929.929,0,1,0,1.858,0v-5.31a3.669,3.669,0,0,1,3.669-3.669h1.44v3.028a1.008,1.008,0,0,0,.951,1h9.526a1.034,1.034,0,0,0,.98-1V10.1h20.127v3.028a.97.97,0,0,0,.906,1h9.7a.928.928,0,0,0,.852-1V10.1h1.548a3.686,3.686,0,0,1,3.716,3.648V46.8l-13.129,13.1a.938.938,0,0,0-.218.339l-1.7,4.662H132.939a.929.929,0,0,0,0,1.858h13.609l-1.558,4.273a.929.929,0,0,0,1.191,1.192L156.974,68.3a.955.955,0,0,0,.339-.217l4.954-4.97v9.073a3.716,3.716,0,0,1-3.716,3.716H112.524a3.666,3.666,0,0,1-3.666-3.666V25.581a.929.929,0,0,0-1.858,0V72.233a5.523,5.523,0,0,0,5.524,5.524h46.032a5.6,5.6,0,0,0,5.574-5.574V61.25l14.936-14.957h0a5.75,5.75,0,1,0-8.124-8.138h0ZM123.566,12.267h-7.741V5.728a3.871,3.871,0,0,1,7.741,0Zm31.584,0h-7.741V5.815a3.871,3.871,0,1,1,7.741,0Zm13.273,31.017,2.123,2.124-17.3,17.3-2.14-2.14Zm-21,26.515.8-2.18L149.6,69Zm4.106-1.5-2.609-2.61,1.256-3.443,4.8,4.8Zm5.131-2.194-2.092-2.092,17.3-17.3,2.075,2.076Zm21.1-21.135-2.5,2.507-5.51-5.51,2.507-2.5a3.893,3.893,0,1,1,5.506,5.506Z" transform="translate(-90.434)" fill="#f90"/>
  <rect id="Rectangle_1102" data-name="Rectangle 1102" width="90.316" height="79.27" fill="none"/>
</svg>
