<svg xmlns="http://www.w3.org/2000/svg" width="50" height="50" viewBox="0 0 50 50">
  <g id="Home" transform="translate(-1455 -1509)">
    <rect id="Rectangle_1095" width="50" height="50" transform="translate(1455 1509)" fill="none"/>
    <path id="Path_105" d="M-292.774,445.915l-14.285-15.365a2.379,2.379,0,0,0-3.478,0l-14.285,15.365a1.525,1.525,0,0,0,1.131,2.562h1.436A1.532,1.532,0,0,1-320.717,450v6.342a5.656,5.656,0,0,0,5.678,5.634h0a1.343,1.343,0,0,0,1.348-1.337v-7.633a2.938,2.938,0,0,1,2.95-2.927h3.886a2.938,2.938,0,0,1,2.95,2.927v7.633a1.343,1.343,0,0,0,1.348,1.337h0a5.656,5.656,0,0,0,5.678-5.634V450a1.532,1.532,0,0,1,1.538-1.526h1.436A1.525,1.525,0,0,0-292.774,445.915Z" transform="translate(1788.798 1088.114)" fill="#9d9d9d"/>
  </g>
</svg>
