<svg xmlns="http://www.w3.org/2000/svg" xmlns:xlink="http://www.w3.org/1999/xlink" width="313.261" height="231.49" viewBox="0 0 313.261 231.49">
  <defs>
    <linearGradient id="linear-gradient" x1="0.5" y1="-0.587" x2="0.5" y2="0.413" gradientUnits="objectBoundingBox">
      <stop offset="0" stop-color="#f15a27"/>
      <stop offset="1" stop-color="#f1a027"/>
    </linearGradient>
    <linearGradient id="linear-gradient-2" x1="0.5" y1="0.096" x2="0.5" y2="1.096" gradientUnits="objectBoundingBox">
      <stop offset="0" stop-color="#f9bda8"/>
      <stop offset="1" stop-color="#f9d8a8"/>
    </linearGradient>
  </defs>
  <g id="lock" transform="translate(0.029)">
    <path id="Path_110" data-name="Path 110" d="M179.653,54.457a134.855,134.855,0,0,1-70.632-3.251c-14.688-4.816-33.189-7.063-53.175-.361C28.436,59.955-.7,85.519-.018,112.448c.843,32.988,45.63,38.848,54.218,84,5.3,27.932-8.909,41.336,1.645,53.375,14.207,16.213,56.867,11.317,83.153-10.354,28.694-23.6,17.3-50.165,40.533-64.532C214.808,153.1,259.8,202.744,291.661,182.4c23.4-14.969,27.892-60.158,12.842-89.374-23-44.546-88.491-46.071-123.285-38.928Z" transform="translate(0 -27.93)" fill="#fff9f3"/>
    <g id="Group_26" data-name="Group 26" transform="translate(84.38)">
      <g id="Group_23" data-name="Group 23" transform="translate(0 71.836)">
        <g id="Group_22" data-name="Group 22">
          <path id="Path_111" data-name="Path 111" d="M354.775,198.263a5.961,5.961,0,0,0-6.02-6.02H335.511L326.121,179l-12.28,13.244H251.234L240.559,179l-11,13.244H216.32a5.961,5.961,0,0,0-6.02,6.02v24.079l12.04,6.02-12.04,6.02v12.04l12.04,6.02-12.04,6.02V270.5l12.04,6.02-12.04,6.02v24.079a5.961,5.961,0,0,0,6.02,6.02H348.755a5.961,5.961,0,0,0,6.02-6.02V282.54l-11.919-6.02,11.919-6.02v-12.04l-11.919-6.02,11.919-6.02v-12.04l-11.919-6.02,11.919-6.02Z" transform="translate(-210.3 -179)" fill="url(#linear-gradient)"/>
        </g>
      </g>
      <g id="Group_25" data-name="Group 25" transform="translate(0)">
        <g id="Group_24" data-name="Group 24">
          <path id="Path_112" data-name="Path 112" d="M282.537,109.159a18.087,18.087,0,0,0-18.059,18.059,6.02,6.02,0,0,0,12.04,0,6.02,6.02,0,1,1,12.04,0,6.1,6.1,0,0,1-3.01,5.217,18.116,18.116,0,0,0-9.03,15.651V151.3a6.02,6.02,0,1,0,12.04,0v-3.211a6.1,6.1,0,0,1,3.01-5.217,18.067,18.067,0,0,0-9.03-33.711Zm0,60.2a6.02,6.02,0,1,0,6.02,6.02A6.012,6.012,0,0,0,282.537,169.356Zm-54.178-6.02H210.3v12.04h18.059a6.02,6.02,0,0,0,0-12.04Zm0-24.079H210.3V151.3h18.059a6.02,6.02,0,0,0,0-12.04Zm0-24.079H210.3v12.04h18.059a6.02,6.02,0,0,0,0-12.04Zm102.457,30.1a6.037,6.037,0,0,0,6.02,6.02h17.939v-12.04H336.836A6.037,6.037,0,0,0,330.816,145.277Zm6.02-30.1a6.02,6.02,0,0,0,0,12.04h17.939v-12.04Zm-6.02,54.178a6.037,6.037,0,0,0,6.02,6.02h17.939v-12.04H336.836A6.037,6.037,0,0,0,330.816,169.356Zm4.7-84.277V52.974a52.974,52.974,0,0,0-105.948,0V85.08h21.671V52.974a31.3,31.3,0,1,1,62.606,0V85.08Z" transform="translate(-210.3)" fill="url(#linear-gradient-2)"/>
        </g>
      </g>
    </g>
  </g>
</svg>
