<svg xmlns="http://www.w3.org/2000/svg" width="50" height="50" viewBox="0 0 50 50">
  <g id="New_Survey" transform="translate(-1579 -1509)">
    <rect id="Rectangle_1094" data-name="Rectangle 1094" width="50" height="50" transform="translate(1579 1509)" fill="none"/>
    <g id="Group_14" data-name="Group 14" transform="translate(1584.09 1517.864)">
      <path id="Path_107" data-name="Path 107" d="M-901.663,425.2a8.763,8.763,0,0,0-3.3.644,5.7,5.7,0,0,0-2.73-.692h-12.589a5.727,5.727,0,0,0-5.727,5.727v21.261a5.727,5.727,0,0,0,5.727,5.727h9.039a5.885,5.885,0,0,0,4.161-1.724l3.391-3.391a5.885,5.885,0,0,0,1.724-4.161v-5.82c.1,0,.2.008.307.008a8.789,8.789,0,0,0,8.789-8.789A8.789,8.789,0,0,0-901.663,425.2Zm-20.842,8.386a.984.984,0,0,1,.984-.984h10.543a.564.564,0,0,1,.56.619q-.033.379-.034.768v.006a.567.567,0,0,1-.563.575h-10.506a.984.984,0,0,1-.984-.984Zm0,4.847a.984.984,0,0,1,.984-.984h11.414a.557.557,0,0,1,.5.312,8.7,8.7,0,0,0,.436.8.562.562,0,0,1-.483.851h-11.871a.984.984,0,0,1-.984-.984Zm9.229,10.677h-8.245a.984.984,0,0,1-.984-.984.984.984,0,0,1,.984-.984h8.245a.984.984,0,0,1,.984.984A.984.984,0,0,1-913.275,449.106Zm7.8-5.831a.984.984,0,0,1-.984.984h-15.06a.984.984,0,0,1-.984-.984h0a.984.984,0,0,1,.984-.984h15.06a.984.984,0,0,1,.984.984Zm3.814-1.621a7.669,7.669,0,0,1-7.669-7.669,7.669,7.669,0,0,1,7.669-7.669,7.669,7.669,0,0,1,7.669,7.669A7.669,7.669,0,0,1-901.663,441.654Z" transform="translate(926.012 -425.148)" fill="#9d9d9d"/>
      <path id="Path_108" data-name="Path 108" d="M6.654,0a6.654,6.654,0,1,0,6.654,6.654A6.654,6.654,0,0,0,6.654,0ZM9.175,8.243a.658.658,0,1,1-.931.931L6.654,7.585,5.065,9.175a.658.658,0,1,1-.931-.931L5.723,6.654,4.133,5.065a.658.658,0,1,1,.931-.931L6.654,5.723l1.59-1.589a.658.658,0,0,1,.931.931L7.585,6.654Z" transform="translate(14.93 8.846) rotate(-45)" fill="#9d9d9d"/>
    </g>
  </g>
</svg>
