<svg xmlns="http://www.w3.org/2000/svg" width="50" height="50" viewBox="0 0 50 50">
  <g id="Profile" transform="translate(-1828 -1509)">
    <rect id="Rectangle_1092" data-name="Rectangle 1092" width="50" height="50" transform="translate(1828 1509)" fill="none"/>
    <path id="Path_106" data-name="Path 106" d="M-521.415,439.395c0-3.741,3.033-9.6,6.773-9.6s6.773,5.86,6.773,9.6a6.773,6.773,0,0,1-6.773,6.773A6.773,6.773,0,0,1-521.415,439.395Zm22.049,21.2c-2.529-7.495-8.417-12.749-15.275-12.749s-12.748,5.255-15.276,12.75a1.483,1.483,0,0,0,1.409,1.95h2.672a1.483,1.483,0,0,0,1.441-1.132l.479-1.963a.208.208,0,0,1,.409.049v1.562a1.483,1.483,0,0,0,1.483,1.483h14.762a1.483,1.483,0,0,0,1.483-1.483v-1.565a.208.208,0,0,1,.409-.049l.481,1.967a1.484,1.484,0,0,0,1.441,1.131h2.672A1.483,1.483,0,0,0-499.366,460.592Z" transform="translate(2367.161 1087.852)" fill="#9d9d9d"/>
  </g>
</svg>
